<svg width="218" height="47" viewBox="0 0 218 47" fill="none" xmlns="http://www.w3.org/2000/svg">
<path d="M82.592 37.504C82.592 38.816 82.396 40.008 82.004 41.08C81.612 42.144 81.06 43.056 80.348 43.816C79.636 44.568 78.78 45.152 77.78 45.568C76.788 45.976 75.692 46.18 74.492 46.18C73.292 46.18 72.196 45.976 71.204 45.568C70.212 45.152 69.36 44.568 68.648 43.816C67.936 43.056 67.384 42.144 66.992 41.08C66.6 40.008 66.404 38.816 66.404 37.504C66.404 36.2 66.6 35.016 66.992 33.952C67.384 32.88 67.936 31.968 68.648 31.216C69.36 30.456 70.212 29.868 71.204 29.452C72.196 29.036 73.292 28.828 74.492 28.828C75.692 28.828 76.788 29.036 77.78 29.452C78.78 29.86 79.636 30.444 80.348 31.204C81.06 31.964 81.612 32.88 82.004 33.952C82.396 35.016 82.592 36.2 82.592 37.504ZM81.32 37.504C81.32 36.32 81.156 35.256 80.828 34.312C80.5 33.368 80.036 32.568 79.436 31.912C78.836 31.256 78.116 30.756 77.276 30.412C76.436 30.06 75.508 29.884 74.492 29.884C73.484 29.884 72.56 30.06 71.72 30.412C70.88 30.756 70.156 31.256 69.548 31.912C68.948 32.568 68.48 33.368 68.144 34.312C67.816 35.256 67.652 36.32 67.652 37.504C67.652 38.696 67.816 39.764 68.144 40.708C68.48 41.644 68.948 42.44 69.548 43.096C70.156 43.752 70.88 44.252 71.72 44.596C72.56 44.94 73.484 45.112 74.492 45.112C75.508 45.112 76.436 44.94 77.276 44.596C78.116 44.252 78.836 43.752 79.436 43.096C80.036 42.44 80.5 41.644 80.828 40.708C81.156 39.764 81.32 38.696 81.32 37.504ZM92.8692 30.04V37.18H100.609V38.2H92.8692V46H91.6332V29.02H101.809V30.04H92.8692ZM135.022 38.296V44.332C134.174 44.932 133.27 45.392 132.31 45.712C131.35 46.032 130.27 46.192 129.07 46.192C127.726 46.192 126.518 45.988 125.446 45.58C124.374 45.164 123.458 44.58 122.698 43.828C121.946 43.068 121.366 42.152 120.958 41.08C120.558 40.008 120.358 38.816 120.358 37.504C120.358 36.192 120.554 35.004 120.946 33.94C121.346 32.868 121.914 31.956 122.65 31.204C123.394 30.444 124.29 29.86 125.338 29.452C126.386 29.036 127.566 28.828 128.878 28.828C129.526 28.828 130.122 28.872 130.666 28.96C131.218 29.048 131.73 29.18 132.202 29.356C132.674 29.524 133.114 29.736 133.522 29.992C133.93 30.24 134.322 30.528 134.698 30.856L134.362 31.384C134.25 31.576 134.082 31.62 133.858 31.516C133.738 31.468 133.566 31.356 133.342 31.18C133.118 31.004 132.81 30.82 132.418 30.628C132.026 30.436 131.538 30.264 130.954 30.112C130.378 29.96 129.674 29.884 128.842 29.884C127.738 29.884 126.738 30.06 125.842 30.412C124.954 30.764 124.194 31.268 123.562 31.924C122.938 32.58 122.454 33.38 122.11 34.324C121.774 35.268 121.606 36.328 121.606 37.504C121.606 38.696 121.774 39.768 122.11 40.72C122.454 41.672 122.946 42.48 123.586 43.144C124.234 43.808 125.018 44.316 125.938 44.668C126.858 45.02 127.894 45.196 129.046 45.196C129.55 45.196 130.014 45.164 130.438 45.1C130.87 45.036 131.278 44.948 131.662 44.836C132.054 44.716 132.43 44.572 132.79 44.404C133.158 44.228 133.53 44.032 133.906 43.816V39.244H130.654C130.566 39.244 130.49 39.216 130.426 39.16C130.37 39.104 130.342 39.04 130.342 38.968V38.296H135.022ZM148.427 37.408C149.179 37.408 149.851 37.32 150.443 37.144C151.043 36.96 151.547 36.7 151.955 36.364C152.371 36.028 152.687 35.624 152.903 35.152C153.119 34.68 153.227 34.148 153.227 33.556C153.227 32.348 152.831 31.452 152.039 30.868C151.255 30.284 150.107 29.992 148.595 29.992H145.487V37.408H148.427ZM155.963 46H154.907C154.771 46 154.655 45.98 154.559 45.94C154.471 45.892 154.387 45.808 154.307 45.688L148.859 38.8C148.795 38.712 148.727 38.636 148.655 38.572C148.591 38.508 148.515 38.46 148.427 38.428C148.347 38.388 148.247 38.36 148.127 38.344C148.015 38.328 147.875 38.32 147.707 38.32H145.487V46H144.251V29.02H148.595C150.547 29.02 152.007 29.4 152.975 30.16C153.951 30.912 154.439 32.02 154.439 33.484C154.439 34.132 154.327 34.724 154.103 35.26C153.879 35.796 153.555 36.268 153.131 36.676C152.715 37.076 152.207 37.404 151.607 37.66C151.015 37.916 150.347 38.088 149.603 38.176C149.795 38.296 149.967 38.456 150.119 38.656L155.963 46ZM173.126 39.832L169.67 31.252C169.55 30.972 169.434 30.636 169.322 30.244C169.274 30.436 169.222 30.62 169.166 30.796C169.11 30.964 169.05 31.12 168.986 31.264L165.53 39.832H173.126ZM176.882 46H175.934C175.822 46 175.73 45.972 175.658 45.916C175.586 45.852 175.53 45.772 175.49 45.676L173.498 40.744H165.158L163.166 45.676C163.134 45.764 163.078 45.84 162.998 45.904C162.918 45.968 162.822 46 162.71 46H161.774L168.722 29.02H169.934L176.882 46ZM196.714 43.144C196.794 43.144 196.862 43.172 196.918 43.228L197.398 43.744C197.046 44.12 196.662 44.46 196.246 44.764C195.838 45.06 195.386 45.316 194.89 45.532C194.402 45.74 193.862 45.9 193.27 46.012C192.686 46.132 192.042 46.192 191.338 46.192C190.162 46.192 189.082 45.988 188.098 45.58C187.122 45.164 186.282 44.58 185.578 43.828C184.874 43.068 184.326 42.152 183.934 41.08C183.55 40.008 183.358 38.816 183.358 37.504C183.358 36.216 183.558 35.04 183.958 33.976C184.358 32.912 184.918 32 185.638 31.24C186.358 30.472 187.222 29.88 188.23 29.464C189.238 29.04 190.35 28.828 191.566 28.828C192.726 28.828 193.754 29.008 194.65 29.368C195.546 29.728 196.362 30.236 197.098 30.892L196.726 31.432C196.662 31.528 196.562 31.576 196.426 31.576C196.33 31.576 196.174 31.488 195.958 31.312C195.742 31.136 195.442 30.944 195.058 30.736C194.674 30.52 194.194 30.324 193.618 30.148C193.05 29.972 192.366 29.884 191.566 29.884C190.542 29.884 189.602 30.06 188.746 30.412C187.898 30.764 187.166 31.268 186.55 31.924C185.942 32.58 185.466 33.38 185.122 34.324C184.778 35.268 184.606 36.328 184.606 37.504C184.606 38.704 184.778 39.776 185.122 40.72C185.474 41.664 185.954 42.464 186.562 43.12C187.17 43.768 187.886 44.268 188.71 44.62C189.542 44.964 190.438 45.136 191.398 45.136C192.006 45.136 192.546 45.096 193.018 45.016C193.498 44.936 193.938 44.816 194.338 44.656C194.738 44.496 195.11 44.3 195.454 44.068C195.798 43.836 196.138 43.564 196.474 43.252C196.514 43.22 196.554 43.196 196.594 43.18C196.634 43.156 196.674 43.144 196.714 43.144ZM216.022 44.98L215.998 46H205.822V29.02H215.998V30.04H207.058V36.904H214.498V37.9H207.058V44.98H216.022Z" fill="black"/>
<path d="M78.548 2.064H72.584V18H71.348V2.064H65.348V1.02H78.548V2.064ZM89.4384 11.832L85.9824 3.252C85.8624 2.972 85.7464 2.636 85.6344 2.244C85.5864 2.436 85.5344 2.62 85.4784 2.796C85.4224 2.964 85.3624 3.12 85.2984 3.264L81.8424 11.832H89.4384ZM93.1944 18H92.2464C92.1344 18 92.0424 17.972 91.9704 17.916C91.8984 17.852 91.8424 17.772 91.8024 17.676L89.8104 12.744H81.4704L79.4784 17.676C79.4464 17.764 79.3904 17.84 79.3104 17.904C79.2304 17.968 79.1344 18 79.0224 18H78.0864L85.0344 1.02H86.2464L93.1944 18ZM102.045 17.016C103.533 17.016 104.657 16.696 105.417 16.056C106.185 15.408 106.569 14.5 106.569 13.332C106.569 12.796 106.465 12.316 106.257 11.892C106.057 11.46 105.765 11.096 105.381 10.8C104.997 10.496 104.525 10.264 103.965 10.104C103.405 9.944 102.769 9.864 102.057 9.864H97.7849V17.016H102.045ZM97.7849 1.992V8.964H101.457C102.241 8.964 102.909 8.864 103.461 8.664C104.021 8.464 104.477 8.2 104.829 7.872C105.189 7.544 105.453 7.172 105.621 6.756C105.789 6.34 105.873 5.912 105.873 5.472C105.873 4.328 105.509 3.464 104.781 2.88C104.061 2.288 102.945 1.992 101.433 1.992H97.7849ZM101.433 1.02C102.401 1.02 103.241 1.116 103.953 1.308C104.665 1.5 105.253 1.784 105.717 2.16C106.181 2.528 106.525 2.98 106.749 3.516C106.973 4.052 107.085 4.66 107.085 5.34C107.085 5.788 107.005 6.22 106.845 6.636C106.693 7.052 106.469 7.436 106.173 7.788C105.885 8.14 105.525 8.448 105.093 8.712C104.669 8.968 104.181 9.164 103.629 9.3C104.965 9.492 105.989 9.936 106.701 10.632C107.421 11.32 107.781 12.228 107.781 13.356C107.781 14.076 107.653 14.724 107.397 15.3C107.141 15.876 106.769 16.364 106.281 16.764C105.793 17.164 105.193 17.472 104.481 17.688C103.769 17.896 102.961 18 102.057 18H96.5489V1.02H101.433ZM122.453 16.98L122.429 18H112.253V1.02H122.429V2.04H113.489V8.904H120.929V9.9H113.489V16.98H122.453ZM130.891 9.408C131.643 9.408 132.315 9.32 132.907 9.144C133.507 8.96 134.011 8.7 134.419 8.364C134.835 8.028 135.151 7.624 135.367 7.152C135.583 6.68 135.691 6.148 135.691 5.556C135.691 4.348 135.295 3.452 134.503 2.868C133.719 2.284 132.571 1.992 131.059 1.992H127.951V9.408H130.891ZM138.427 18H137.371C137.235 18 137.119 17.98 137.023 17.94C136.935 17.892 136.851 17.808 136.771 17.688L131.323 10.8C131.259 10.712 131.191 10.636 131.119 10.572C131.055 10.508 130.979 10.46 130.891 10.428C130.811 10.388 130.711 10.36 130.591 10.344C130.479 10.328 130.339 10.32 130.171 10.32H127.951V18H126.715V1.02H131.059C133.011 1.02 134.471 1.4 135.439 2.16C136.415 2.912 136.903 4.02 136.903 5.484C136.903 6.132 136.791 6.724 136.567 7.26C136.343 7.796 136.019 8.268 135.595 8.676C135.179 9.076 134.671 9.404 134.071 9.66C133.479 9.916 132.811 10.088 132.067 10.176C132.259 10.296 132.431 10.456 132.583 10.656L138.427 18ZM154.937 1.02V18H154.361C154.257 18 154.169 17.984 154.097 17.952C154.033 17.912 153.969 17.848 153.905 17.76L142.877 3.024C142.901 3.264 142.913 3.492 142.913 3.708V18H141.833V1.02H142.445C142.557 1.02 142.641 1.036 142.697 1.068C142.761 1.092 142.829 1.152 142.901 1.248L153.905 15.948C153.881 15.708 153.869 15.48 153.869 15.264V1.02H154.937ZM169.646 11.832L166.19 3.252C166.07 2.972 165.954 2.636 165.842 2.244C165.794 2.436 165.742 2.62 165.686 2.796C165.63 2.964 165.57 3.12 165.506 3.264L162.05 11.832H169.646ZM173.402 18H172.454C172.342 18 172.25 17.972 172.178 17.916C172.106 17.852 172.05 17.772 172.01 17.676L170.018 12.744H161.678L159.686 17.676C159.654 17.764 159.598 17.84 159.518 17.904C159.438 17.968 159.342 18 159.23 18H158.294L165.242 1.02H166.454L173.402 18ZM188.634 15.144C188.714 15.144 188.782 15.172 188.838 15.228L189.318 15.744C188.966 16.12 188.582 16.46 188.166 16.764C187.758 17.06 187.306 17.316 186.81 17.532C186.322 17.74 185.782 17.9 185.19 18.012C184.606 18.132 183.962 18.192 183.258 18.192C182.082 18.192 181.002 17.988 180.018 17.58C179.042 17.164 178.202 16.58 177.498 15.828C176.794 15.068 176.246 14.152 175.854 13.08C175.47 12.008 175.278 10.816 175.278 9.504C175.278 8.216 175.478 7.04 175.878 5.976C176.278 4.912 176.838 4 177.558 3.24C178.278 2.472 179.142 1.88 180.15 1.464C181.158 1.04 182.27 0.827999 183.486 0.827999C184.646 0.827999 185.674 1.008 186.57 1.368C187.466 1.728 188.282 2.236 189.018 2.892L188.646 3.432C188.582 3.528 188.482 3.576 188.346 3.576C188.25 3.576 188.094 3.488 187.878 3.312C187.662 3.136 187.362 2.944 186.978 2.736C186.594 2.52 186.114 2.324 185.538 2.148C184.97 1.972 184.286 1.884 183.486 1.884C182.462 1.884 181.522 2.06 180.666 2.412C179.818 2.764 179.086 3.268 178.47 3.924C177.862 4.58 177.386 5.38 177.042 6.324C176.698 7.268 176.526 8.328 176.526 9.504C176.526 10.704 176.698 11.776 177.042 12.72C177.394 13.664 177.874 14.464 178.482 15.12C179.09 15.768 179.806 16.268 180.63 16.62C181.462 16.964 182.358 17.136 183.318 17.136C183.926 17.136 184.466 17.096 184.938 17.016C185.418 16.936 185.858 16.816 186.258 16.656C186.658 16.496 187.03 16.3 187.374 16.068C187.718 15.836 188.058 15.564 188.394 15.252C188.434 15.22 188.474 15.196 188.514 15.18C188.554 15.156 188.594 15.144 188.634 15.144ZM202.417 16.956V18H193.14V1.02H194.376V16.956H202.417ZM216.021 16.98L215.997 18H205.821V1.02H215.997V2.04H207.057V8.904H214.497V9.9H207.057V16.98H216.021Z" fill="black"/>
<rect x="52" y="26" width="20" height="8" transform="rotate(180 52 26)" fill="black"/>
<rect x="44" y="46" width="28" height="8" transform="rotate(-90 44 46)" fill="black"/>
<rect x="52" y="46" width="35" height="8" transform="rotate(180 52 46)" fill="black"/>
<path d="M17 46L17 1L25 1L25 46L17 46Z" fill="black"/>
<rect y="1" width="25" height="8" fill="black"/>
</svg>
